<svg width="37" height="37" viewBox="0 0 37 37" fill="none" xmlns="http://www.w3.org/2000/svg">
<rect width="36.75" height="36.75" rx="18.375" fill="white"/>
<path d="M8.875 15.875L18.375 10.375L27.875 15.875" stroke="#372B2B" stroke-width="1.5" stroke-linecap="round" stroke-linejoin="round"/>
<path d="M13.375 27.375V26.375C13.375 25.0489 13.9018 23.7771 14.8395 22.8395C15.7771 21.9018 17.0489 21.375 18.375 21.375C19.7011 21.375 20.9729 21.9018 21.9105 22.8395C22.8482 23.7771 23.375 25.0489 23.375 26.375V27.375" stroke="#372B2B" stroke-width="1.5"/>
<path d="M18.375 21.375C19.1706 21.375 19.9337 21.0589 20.4963 20.4963C21.0589 19.9337 21.375 19.1706 21.375 18.375C21.375 17.5794 21.0589 16.8163 20.4963 16.2537C19.9337 15.6911 19.1706 15.375 18.375 15.375C17.5794 15.375 16.8163 15.6911 16.2537 16.2537C15.6911 16.8163 15.375 17.5794 15.375 18.375C15.375 19.1706 15.6911 19.9337 16.2537 20.4963C16.8163 21.0589 17.5794 21.375 18.375 21.375Z" stroke="#372B2B" stroke-width="1.5" stroke-linecap="round" stroke-linejoin="round"/>
</svg>
