<svg width="1202" height="144" viewBox="0 0 1202 144" fill="none" xmlns="http://www.w3.org/2000/svg">
<path d="M-0.000101479 194.75V2.62669H23.2649V97.938H25.5163L111.822 2.62669H142.216L61.5395 89.3075L142.216 194.75H114.073L47.2803 105.443L23.2649 132.46V194.75H-0.000101479ZM180.21 194.75H155.819L226.364 2.62669H250.38L320.925 194.75H296.534L239.123 33.0213H237.622L180.21 194.75ZM189.215 119.702H287.529V140.34H189.215V119.702ZM350.851 194.75V2.62669H415.767C430.777 2.62669 443.098 5.19084 452.729 10.3191C462.36 15.3849 469.49 22.3581 474.118 31.2389C478.746 40.1196 481.06 50.2198 481.06 61.5396C481.06 72.8594 478.746 82.8971 474.118 91.6527C469.49 100.408 462.391 107.288 452.823 112.291C443.254 117.232 431.027 119.702 416.143 119.702H363.609V98.6885H415.392C425.649 98.6885 433.904 97.1876 440.158 94.1856C446.475 91.1837 451.04 86.931 453.854 81.4274C456.731 75.8613 458.17 69.2321 458.17 61.5396C458.17 53.8472 456.731 47.1241 453.854 41.3704C450.978 35.6167 446.381 31.1763 440.064 28.0493C433.748 24.8598 425.399 23.265 415.017 23.265H374.116V194.75H350.851ZM441.284 108.445L488.564 194.75H461.547L415.017 108.445H441.284ZM519.827 194.75V2.62669H543.092V97.938H545.343L631.649 2.62669H662.043L581.366 89.3075L662.043 194.75H633.9L567.107 105.443L543.092 132.46V194.75H519.827ZM700.036 194.75H675.646L746.191 2.62669H770.207L840.752 194.75H816.361L758.949 33.0213H757.448L700.036 194.75ZM709.042 119.702H807.355V140.34H709.042V119.702ZM975.745 50.6576C974.619 41.1515 970.054 33.7717 962.049 28.5184C954.044 23.265 944.225 20.6383 932.592 20.6383C924.087 20.6383 916.645 22.0142 910.265 24.7659C903.949 27.5177 899.008 31.3014 895.443 36.117C891.941 40.9326 890.19 46.4049 890.19 52.5338C890.19 57.6621 891.41 62.0712 893.849 65.7611C896.35 69.3884 899.54 72.4216 903.417 74.8607C907.295 77.2372 911.36 79.2072 915.613 80.7707C919.865 82.2717 923.774 83.4912 927.339 84.4293L946.851 89.6827C951.855 90.9961 957.421 92.8097 963.55 95.1237C969.741 97.4377 975.651 100.596 981.28 104.599C986.971 108.539 991.662 113.604 995.351 119.796C999.041 125.987 1000.89 133.586 1000.89 142.592C1000.89 152.973 998.166 162.354 992.725 170.735C987.346 179.115 979.466 185.776 969.085 190.716C958.765 195.657 946.226 198.128 931.467 198.128C917.708 198.128 905.794 195.907 895.725 191.467C885.718 187.027 877.838 180.835 872.085 172.893C866.393 164.95 863.173 155.725 862.422 145.218H886.438C887.063 152.473 889.502 158.477 893.755 163.23C898.07 167.921 903.511 171.423 910.078 173.737C916.707 175.988 923.837 177.114 931.467 177.114C940.347 177.114 948.321 175.676 955.388 172.799C962.455 169.859 968.053 165.794 972.18 160.603C976.308 155.35 978.372 149.221 978.372 142.217C978.372 135.837 976.589 130.647 973.025 126.644C969.46 122.641 964.769 119.389 958.953 116.888C953.137 114.386 946.851 112.197 940.097 110.321L916.457 103.567C901.447 99.2514 889.565 93.0912 880.809 85.086C872.053 77.0809 867.676 66.6054 867.676 53.6595C867.676 42.9026 870.584 33.5216 876.4 25.5164C882.279 17.4487 890.159 11.1947 900.04 6.75435C909.984 2.25145 921.085 -4.38095e-07 933.343 -4.38095e-07C945.726 -4.38095e-07 956.733 2.22018 966.364 6.66053C975.995 11.0383 983.625 17.0422 989.254 24.6721C994.945 32.302 997.947 40.9639 998.26 50.6576H975.745ZM1201.24 98.6885C1201.24 118.952 1197.58 136.463 1190.27 151.222C1182.95 165.982 1172.91 177.364 1160.15 185.369C1147.39 193.374 1132.82 197.377 1116.44 197.377C1100.05 197.377 1085.48 193.374 1072.72 185.369C1059.96 177.364 1049.93 165.982 1042.61 151.222C1035.29 136.463 1031.63 118.952 1031.63 98.6885C1031.63 78.4255 1035.29 60.9142 1042.61 46.1547C1049.93 31.3952 1059.96 20.0129 1072.72 12.0077C1085.48 4.00258 1100.05 -4.38095e-07 1116.44 -4.38095e-07C1132.82 -4.38095e-07 1147.39 4.00258 1160.15 12.0077C1172.91 20.0129 1182.95 31.3952 1190.27 46.1547C1197.58 60.9142 1201.24 78.4255 1201.24 98.6885ZM1178.73 98.6885C1178.73 82.0528 1175.94 68.0125 1170.38 56.5677C1164.87 45.1228 1157.4 36.461 1147.96 30.5822C1138.58 24.7034 1128.07 21.764 1116.44 21.764C1104.8 21.764 1094.27 24.7034 1084.82 30.5822C1075.44 36.461 1067.97 45.1228 1062.4 56.5677C1056.9 68.0125 1054.15 82.0528 1054.15 98.6885C1054.15 115.324 1056.9 129.365 1062.4 140.809C1067.97 152.254 1075.44 160.916 1084.82 166.795C1094.27 172.674 1104.8 175.613 1116.44 175.613C1128.07 175.613 1138.58 172.674 1147.96 166.795C1157.4 160.916 1164.87 152.254 1170.38 140.809C1175.94 129.365 1178.73 115.324 1178.73 98.6885Z" fill="url(#paint0_linear_297_38)"/>
<defs>
<linearGradient id="paint0_linear_297_38" x1="-900.814" y1="-204.985" x2="-900.814" y2="384.334" gradientUnits="userSpaceOnUse">
<stop stop-color="#E1D5D5"/>
<stop offset="0.7" stop-color="#C3B7B7" stop-opacity="0.1"/>
</linearGradient>
</defs>
</svg>
