<svg width="100" height="21" viewBox="0 0 100 21" fill="none" xmlns="http://www.w3.org/2000/svg">
<path d="M14.04 1.76L8.46 7.38L14.56 16H10.64L6.32 9.6L4.5 11.4V16H1.42V1.76H4.5V7.68L10.1 1.76H14.04ZM22.8936 1.74L28.3136 16H25.0336L23.9136 12.82H18.6136L17.4536 16H14.2536L19.6736 1.74H22.8936ZM23.1536 10.54L21.2736 5.24L19.3736 10.54H23.1536ZM29.625 1.76L36.705 1.78C38.105 1.78 39.265 2.1 40.165 2.78C41.045 3.44 41.505 4.46 41.505 5.82C41.505 6.64 41.305 7.36 40.905 7.98C40.505 8.6 39.945 9.04 39.245 9.32C40.465 9.56 41.165 10.68 41.345 12.64C41.345 12.7 41.345 12.9 41.385 13.26C41.405 13.6 41.425 13.88 41.465 14.08C41.485 14.28 41.525 14.54 41.565 14.84C41.605 15.12 41.665 15.38 41.745 15.58C41.825 15.78 41.905 15.92 42.025 16.02H38.785C38.665 15.8 38.585 15.52 38.545 15.2C38.485 14.88 38.445 14.46 38.405 13.94C38.365 13.42 38.345 13.14 38.345 13.08C38.225 12.08 37.985 11.4 37.585 11C37.185 10.62 36.505 10.42 35.505 10.42H32.725V16H29.625V1.76ZM32.725 4.24V8.18H35.685C36.545 8.18 37.225 8.04 37.705 7.76C38.185 7.48 38.445 6.96 38.445 6.16C38.445 5.4 38.205 4.9 37.725 4.64C37.245 4.36 36.625 4.24 35.825 4.24H32.725ZM56.5986 1.76L51.0186 7.38L57.1186 16H53.1986L48.8786 9.6L47.0586 11.4V16H43.9786V1.76H47.0586V7.68L52.6586 1.76H56.5986ZM65.4522 1.74L70.8722 16H67.5922L66.4722 12.82H61.1722L60.0122 16H56.8122L62.2322 1.74H65.4522ZM65.7122 10.54L63.8322 5.24L61.9322 10.54H65.7122ZM82.6036 6L79.6236 6.02C79.5036 4.6 78.6036 3.9 76.9236 3.9C76.2036 3.9 75.6436 4.04 75.2436 4.32C74.8436 4.6 74.6236 5 74.6236 5.52C74.6236 5.68 74.6636 5.84 74.7036 5.98C74.7636 6.1 74.8636 6.22 75.0036 6.34C75.1636 6.46 75.3036 6.54 75.4436 6.62C75.6036 6.7 75.8236 6.78 76.1036 6.86C76.3836 6.94 76.6436 7.02 76.8836 7.1C77.1236 7.16 77.4436 7.24 77.8636 7.36C78.3036 7.46 78.6636 7.56 78.9836 7.66C80.3836 8.06 81.4436 8.56 82.1236 9.16C82.8036 9.76 83.1436 10.62 83.1436 11.74C83.1436 12.54 82.9836 13.26 82.6436 13.86C82.3236 14.46 81.8636 14.94 81.3036 15.3C80.7436 15.66 80.1236 15.92 79.4436 16.08C78.7636 16.24 78.0436 16.34 77.2836 16.34C75.3636 16.34 73.8436 15.88 72.7636 15C71.6836 14.12 71.1236 12.86 71.1036 11.26H74.2036C74.2636 13.04 75.3436 13.94 77.4236 13.94C78.2436 13.94 78.8836 13.76 79.3636 13.42C79.8436 13.08 80.0636 12.62 80.0636 12.04C80.0636 11.54 79.8636 11.18 79.4236 10.96C78.9836 10.72 78.0836 10.42 76.6836 10.02C76.6036 10 76.5436 9.98 76.5036 9.98C76.4636 9.96 76.4236 9.94 76.3436 9.92C76.2836 9.9 76.2236 9.88 76.1636 9.88C75.6836 9.74 75.3636 9.64 75.1636 9.58C74.9836 9.52 74.6836 9.42 74.2836 9.28C73.8836 9.12 73.5836 9 73.4036 8.88C73.2036 8.76 72.9836 8.58 72.7036 8.38C72.4236 8.16 72.2436 7.94 72.1236 7.7C72.0036 7.46 71.8836 7.18 71.7836 6.84C71.6836 6.5 71.6436 6.14 71.6436 5.74C71.6436 4.44 72.1436 3.4 73.1436 2.62C74.1436 1.86 75.4636 1.46 77.1236 1.46C78.7236 1.46 80.0236 1.84 81.0436 2.6C82.0436 3.36 82.5636 4.48 82.6036 6ZM91.4919 1.42C93.5719 1.42 95.2519 2.12 96.5319 3.5C97.8119 4.88 98.4719 6.68 98.4719 8.9C98.4719 11.14 97.8119 12.94 96.5319 14.3C95.2519 15.66 93.5519 16.34 91.4719 16.34C89.3519 16.34 87.6519 15.66 86.3719 14.3C85.0719 12.94 84.4319 11.14 84.4319 8.9C84.4319 6.66 85.0719 4.84 86.3519 3.48C87.6319 2.12 89.3519 1.42 91.4919 1.42ZM91.4519 3.98C90.2719 3.98 89.3319 4.44 88.6319 5.32C87.9319 6.2 87.5719 7.38 87.5719 8.86C87.5719 10.38 87.9319 11.58 88.6119 12.46C89.3119 13.32 90.2719 13.76 91.4919 13.78C92.6719 13.78 93.6119 13.34 94.2919 12.46C94.9719 11.58 95.3119 10.38 95.3119 8.86C95.3119 7.36 94.9519 6.18 94.2719 5.3C93.5719 4.42 92.6319 3.98 91.4519 3.98Z" fill="#222222"/>
</svg>
