<svg width="37" height="37" viewBox="0 0 37 37" fill="none" xmlns="http://www.w3.org/2000/svg">
<rect width="36.75" height="36.75" rx="18.375" fill="white"/>
<path d="M8.375 23.3748V13.3748C8.375 12.2702 9.27043 11.3748 10.375 11.3748H16.375H20.375H26.375C27.4796 11.3748 28.3751 12.2702 28.3751 13.3748V23.3748C28.3751 24.4794 27.4796 25.3748 26.375 25.3748H20.375H16.375H10.375C9.27043 25.3748 8.375 24.4794 8.375 23.3748Z" stroke="#372B2B" stroke-width="1.5" stroke-linecap="round" stroke-linejoin="round"/>
<path d="M18.375 21.375C16.7181 21.375 15.375 20.0318 15.375 18.375C15.375 16.7181 16.7181 15.375 18.375 15.375C20.0318 15.375 21.375 16.7181 21.375 18.375C21.375 20.0318 20.0318 21.375 18.375 21.375Z" stroke="#372B2B" stroke-width="1.5" stroke-linecap="round" stroke-linejoin="round"/>
<path d="M24.875 18.3849L24.885 18.3738" stroke="#372B2B" stroke-width="1.5" stroke-linecap="round" stroke-linejoin="round"/>
<path d="M11.875 18.3849L11.885 18.3738" stroke="#372B2B" stroke-width="1.5" stroke-linecap="round" stroke-linejoin="round"/>
</svg>
