<svg width="353" height="37" viewBox="0 0 353 37" fill="none" xmlns="http://www.w3.org/2000/svg">
<rect width="36.8195" height="36.8195" rx="18.375" fill="white"/>
<path d="M8.89179 15.905L18.4098 10.3946L27.9278 15.905" stroke="#372B2B" stroke-width="1.5" stroke-linecap="round" stroke-linejoin="round"/>
<path d="M13.4003 27.4268V26.4249C13.4003 25.0963 13.9281 23.8221 14.8675 22.8827C15.807 21.9432 17.0812 21.4154 18.4098 21.4154C19.7384 21.4154 21.0125 21.9432 21.952 22.8827C22.8915 23.8221 23.4192 25.0963 23.4192 26.4249V27.4268" stroke="#372B2B" stroke-width="1.5"/>
<path d="M18.4098 21.4154C19.2069 21.4154 19.9714 21.0988 20.5351 20.5351C21.0988 19.9714 21.4154 19.2069 21.4154 18.4098C21.4154 17.6126 21.0988 16.8481 20.5351 16.2844C19.9714 15.7208 19.2069 15.4041 18.4098 15.4041C17.6126 15.4041 16.8481 15.7208 16.2844 16.2844C15.7208 16.8481 15.4041 17.6126 15.4041 18.4098C15.4041 19.2069 15.7208 19.9714 16.2844 20.5351C16.8481 21.0988 17.6126 21.4154 18.4098 21.4154Z" stroke="#372B2B" stroke-width="1.5" stroke-linecap="round" stroke-linejoin="round"/>
</svg>
