<svg width="353" height="37" viewBox="0 0 353 37" fill="none" xmlns="http://www.w3.org/2000/svg">
<rect width="36.8195" height="36.8195" rx="18.375" fill="white"/>
<path d="M8.39085 23.419V13.4001C8.39085 12.2934 9.28797 11.3963 10.3946 11.3963H16.406H20.4136H26.4249C27.5316 11.3963 28.4287 12.2934 28.4287 13.4001V23.419C28.4287 24.5257 27.5316 25.4228 26.4249 25.4228H20.4136H16.406H10.3946C9.28797 25.4228 8.39085 24.5257 8.39085 23.419Z" stroke="#372B2B" stroke-width="1.5" stroke-linecap="round" stroke-linejoin="round"/>
<path d="M18.4098 21.4154C16.7497 21.4154 15.4041 20.0697 15.4041 18.4098C15.4041 16.7497 16.7497 15.4041 18.4098 15.4041C20.0697 15.4041 21.4154 16.7497 21.4154 18.4098C21.4154 20.0697 20.0697 21.4154 18.4098 21.4154Z" stroke="#372B2B" stroke-width="1.5" stroke-linecap="round" stroke-linejoin="round"/>
<path d="M24.9221 18.4197L24.932 18.4085" stroke="#372B2B" stroke-width="1.5" stroke-linecap="round" stroke-linejoin="round"/>
<path d="M11.8975 18.4197L11.9075 18.4085" stroke="#372B2B" stroke-width="1.5" stroke-linecap="round" stroke-linejoin="round"/>
</svg>
